# Blender 5.0.0
# www.blender.org
mtllib ramp.mtl
o the_ramp
v -17.102383 5.000000 4.932734
v -7.236914 0.000000 4.932734
v -17.102383 5.000000 -4.932734
v -7.236914 0.000000 -4.932734
v -28.643333 0.000000 4.932734
v -18.777863 0.000000 4.932734
v -28.643333 0.000000 -4.932734
v -18.777863 0.000000 -4.932734
v -28.643333 1.000000 4.932734
v -18.777863 1.000000 4.932734
v -28.643333 1.000000 -4.932734
v -18.777863 1.000000 -4.932734
v -17.102383 0.000000 4.932734
v -7.236914 0.000000 4.932734
v -17.102383 0.000000 -4.932734
v -7.236914 0.000000 -4.932734
vn 0.4521 0.8920 -0.0000
vt -1.662493 -1.578229
vt 2.493967 -1.578230
vt 2.493967 2.578230
vt -1.662493 2.578230
s 0
f 1/1/1 2/2/1 4/3/1 3/4/1
l 7 11
l 12 8
l 6 10
l 9 5
l 16 4
l 3 15
l 13 1
l 2 14
