# Blender 5.0.0
# www.blender.org
mtllib straight.mtl
o the_reta
v -4.932734 0.000000 4.932734
v 4.932734 0.000000 4.932734
v -4.932734 0.000000 -4.932734
v 4.932734 0.000000 -4.932734
v -4.932734 1.000000 4.932734
v 4.932734 1.000000 4.932734
v -4.932734 1.000000 -4.932734
v 4.932734 1.000000 -4.932734
vn -0.0000 1.0000 -0.0000
vn -0.0000 -0.0000 1.0000
vn -0.0000 -0.0000 -1.0000
vt -1.662493 -1.578229
vt 2.493967 -1.578230
vt 2.493967 2.578230
vt -1.662493 2.578230
vt 2.493967 2.999544
vt -1.662493 2.999544
vt -1.662493 -1.999544
vt 2.493967 -1.999544
s 0
f 1/1/1 2/2/1 4/3/1 3/4/1
f 3/4/2 4/3/2 8/5/2 7/6/2
f 2/2/3 1/1/3 5/7/3 6/8/3
