# Blender 5.0.0
# www.blender.org
mtllib turn.mtl
o the_turn
v 5.000000 0.000000 -0.000000
v -6.366199 -0.000000 -11.366198
v -5.000000 -0.000000 0.000000
v -6.366198 -0.000000 -1.366198
v -4.000000 -0.000000 0.000000
v -3.000000 -0.000000 0.000000
v -2.000000 -0.000000 0.000000
v -1.000000 -0.000000 0.000000
v 0.000000 0.000000 0.000000
v 1.000000 0.000000 -0.000000
v 2.000000 0.000000 -0.000000
v 3.000000 0.000000 -0.000000
v 4.000000 0.000000 -0.000000
v 4.860064 0.000000 -1.778065
v 4.443699 0.000000 -3.512349
v 3.761159 0.000000 -5.160146
v 2.829249 0.000000 -6.680884
v 1.670918 0.000000 -8.037115
v 0.314686 0.000000 -9.195447
v -1.206052 -0.000000 -10.127357
v -2.853850 -0.000000 -10.809897
v -4.588134 -0.000000 -11.226262
v -6.366199 -0.000000 -10.366198
v -6.366199 -0.000000 -9.366198
v -6.366199 -0.000000 -8.366198
v -6.366199 -0.000000 -7.366198
v -6.366199 -0.000000 -6.366198
v -6.366198 -0.000000 -5.366198
v -6.366198 -0.000000 -4.366198
v -6.366198 -0.000000 -3.366198
v -6.366198 -0.000000 -2.366198
v -6.152477 -0.000000 -1.349378
v -5.944020 -0.000000 -1.299331
v -5.745956 -0.000000 -1.217291
v -5.563167 -0.000000 -1.105277
v -5.400150 -0.000000 -0.966048
v -5.260921 -0.000000 -0.803031
v -5.148907 -0.000000 -0.620241
v -5.066866 -0.000000 -0.422178
v -5.016820 -0.000000 -0.213720
v 3.872375 0.000000 -1.621631
v 2.884687 0.000000 -1.465196
v 1.896999 0.000000 -1.308762
v 0.909310 0.000000 -1.152327
v -0.078378 -0.000000 -0.995893
v -1.066067 -0.000000 -0.839458
v -2.053755 -0.000000 -0.683024
v -3.041444 -0.000000 -0.526589
v -4.029132 -0.000000 -0.370155
v 3.492642 0.000000 -3.203331
v 2.541586 0.000000 -2.894314
v 1.590530 0.000000 -2.585298
v 0.639473 0.000000 -2.276280
v -0.311584 -0.000000 -1.967263
v -1.262640 -0.000000 -1.658247
v -2.213697 -0.000000 -1.349229
v -3.164754 -0.000000 -1.040212
v -4.115810 -0.000000 -0.731195
v 2.870152 0.000000 -4.706155
v 1.979146 0.000000 -4.252165
v 1.088139 0.000000 -3.798174
v 0.197133 0.000000 -3.344184
v -0.693874 -0.000000 -2.890193
v -1.584880 -0.000000 -2.436203
v -2.475887 -0.000000 -1.982212
v -3.366894 -0.000000 -1.528222
v -4.257900 -0.000000 -1.074231
v 2.020233 0.000000 -6.093099
v 1.211216 0.000000 -5.505313
v 0.402199 0.000000 -4.917528
v -0.406818 -0.000000 -4.329742
v -1.215835 -0.000000 -3.741957
v -2.024853 -0.000000 -3.154172
v -2.833869 -0.000000 -2.566386
v -3.642887 -0.000000 -1.978601
v -4.451903 -0.000000 -1.390816
v 0.963811 0.000000 -7.330009
v 0.256704 0.000000 -6.622902
v -0.450402 -0.000000 -5.915795
v -1.157509 -0.000000 -5.208688
v -1.864616 -0.000000 -4.501581
v -2.571723 -0.000000 -3.794475
v -3.278830 -0.000000 -3.087368
v -3.985936 -0.000000 -2.380261
v -4.693043 -0.000000 -1.673154
v -0.273100 -0.000000 -8.386431
v -0.860885 -0.000000 -7.577414
v -1.448670 -0.000000 -6.768396
v -2.036455 -0.000000 -5.959379
v -2.624241 -0.000000 -5.150362
v -3.212026 -0.000000 -4.341345
v -3.799811 -0.000000 -3.532328
v -4.387596 -0.000000 -2.723311
v -4.975382 -0.000000 -1.914294
v -1.660042 -0.000000 -9.236350
v -2.114033 -0.000000 -8.345344
v -2.568023 -0.000000 -7.454337
v -3.022014 -0.000000 -6.563330
v -3.476004 -0.000000 -5.672324
v -3.929995 -0.000000 -4.781317
v -4.383985 -0.000000 -3.890311
v -4.837976 -0.000000 -2.999304
v -5.291967 -0.000000 -2.108298
v -3.162868 -0.000000 -9.858840
v -3.471884 -0.000000 -8.907784
v -3.780901 -0.000000 -7.956727
v -4.089919 -0.000000 -7.005671
v -4.398935 -0.000000 -6.054614
v -4.707952 -0.000000 -5.103557
v -5.016969 -0.000000 -4.152501
v -5.325986 -0.000000 -3.201444
v -5.635003 -0.000000 -2.250388
v -4.744568 -0.000000 -10.238573
v -4.901002 -0.000000 -9.250884
v -5.057437 -0.000000 -8.263197
v -5.213871 -0.000000 -7.275507
v -5.370306 -0.000000 -6.287820
v -5.526740 -0.000000 -5.300130
v -5.683174 -0.000000 -4.312442
v -5.839609 -0.000000 -3.324754
v -5.996043 -0.000000 -2.337066
vn -0.0000 1.0000 -0.0000
vt 0.967340 0.794326
vt 0.999900 0.791763
vt 0.999900 0.879726
vt 0.981101 0.881205
vt 0.791763 0.999900
vt 0.794326 0.967340
vt 0.881205 0.981100
vt 0.879726 0.999900
vt 0.801950 0.935582
vt 0.885607 0.962764
vt 0.814449 0.905408
vt 0.892824 0.945342
vt 0.831514 0.877560
vt 0.902677 0.929263
vt 0.852725 0.852725
vt 0.914924 0.914924
vt 0.877560 0.831514
vt 0.929263 0.902677
vt 0.905408 0.814449
vt 0.945342 0.892824
vt 0.935582 0.801950
vt 0.962764 0.885607
vt 0.000100 0.999900
vt 0.012409 0.843497
vt 0.099289 0.857257
vt 0.088063 0.999900
vt 0.186168 0.871018
vt 0.176025 0.999900
vt 0.273048 0.884778
vt 0.263988 0.999900
vt 0.359928 0.898538
vt 0.351950 0.999900
vt 0.446807 0.912299
vt 0.439913 0.999900
vt 0.533687 0.926059
vt 0.527875 0.999900
vt 0.620566 0.939819
vt 0.615838 0.999900
vt 0.707446 0.953580
vt 0.703801 0.999900
vt 0.049034 0.690945
vt 0.132691 0.718127
vt 0.216348 0.745309
vt 0.300006 0.772491
vt 0.383663 0.799672
vt 0.467321 0.826854
vt 0.550978 0.854036
vt 0.634635 0.881218
vt 0.718293 0.908400
vt 0.109072 0.546000
vt 0.187447 0.585934
vt 0.265822 0.625869
vt 0.344197 0.665803
vt 0.422573 0.705737
vt 0.500948 0.745671
vt 0.579323 0.785605
vt 0.657698 0.825539
vt 0.736073 0.865474
vt 0.191045 0.412232
vt 0.262208 0.463935
vt 0.333371 0.515638
vt 0.404534 0.567342
vt 0.475698 0.619045
vt 0.546861 0.670748
vt 0.618024 0.722451
vt 0.689187 0.774154
vt 0.760351 0.825857
vt 0.292935 0.292935
vt 0.355134 0.355133
vt 0.417333 0.417332
vt 0.479531 0.479531
vt 0.541730 0.541730
vt 0.603929 0.603929
vt 0.666128 0.666128
vt 0.728327 0.728327
vt 0.790526 0.790526
vt 0.412232 0.191045
vt 0.463935 0.262208
vt 0.515638 0.333371
vt 0.567342 0.404534
vt 0.619045 0.475698
vt 0.670748 0.546861
vt 0.722451 0.618024
vt 0.774154 0.689187
vt 0.825857 0.760350
vt 0.546000 0.109072
vt 0.585934 0.187447
vt 0.625869 0.265822
vt 0.665803 0.344197
vt 0.705737 0.422572
vt 0.745671 0.500948
vt 0.785605 0.579323
vt 0.825539 0.657698
vt 0.865474 0.736073
vt 0.690945 0.049033
vt 0.718127 0.132691
vt 0.745309 0.216348
vt 0.772491 0.300006
vt 0.799673 0.383663
vt 0.826854 0.467320
vt 0.854036 0.550978
vt 0.881218 0.634635
vt 0.908400 0.718293
vt 0.843497 0.012409
vt 0.857257 0.099289
vt 0.871018 0.186168
vt 0.884778 0.273048
vt 0.898538 0.359928
vt 0.912299 0.446807
vt 0.926059 0.533687
vt 0.939820 0.620566
vt 0.953580 0.707446
vt 0.999900 0.000100
vt 0.999900 0.088062
vt 0.999900 0.176025
vt 0.999900 0.263988
vt 0.999900 0.351950
vt 0.999900 0.439913
vt 0.999900 0.527875
vt 0.999900 0.615838
vt 0.999900 0.703800
s 1
f 121/1/1 31/2/1 4/3/1 32/4/1
f 5/5/1 49/6/1 40/7/1 3/8/1
f 49/6/1 58/9/1 39/10/1 40/7/1
f 58/9/1 67/11/1 38/12/1 39/10/1
f 67/11/1 76/13/1 37/14/1 38/12/1
f 76/13/1 85/15/1 36/16/1 37/14/1
f 85/15/1 94/17/1 35/18/1 36/16/1
f 94/17/1 103/19/1 34/20/1 35/18/1
f 103/19/1 112/21/1 33/22/1 34/20/1
f 112/21/1 121/1/1 32/4/1 33/22/1
f 1/23/1 14/24/1 41/25/1 13/26/1
f 13/26/1 41/25/1 42/27/1 12/28/1
f 12/28/1 42/27/1 43/29/1 11/30/1
f 11/30/1 43/29/1 44/31/1 10/32/1
f 10/32/1 44/31/1 45/33/1 9/34/1
f 9/34/1 45/33/1 46/35/1 8/36/1
f 8/36/1 46/35/1 47/37/1 7/38/1
f 7/38/1 47/37/1 48/39/1 6/40/1
f 6/40/1 48/39/1 49/6/1 5/5/1
f 14/24/1 15/41/1 50/42/1 41/25/1
f 41/25/1 50/42/1 51/43/1 42/27/1
f 42/27/1 51/43/1 52/44/1 43/29/1
f 43/29/1 52/44/1 53/45/1 44/31/1
f 44/31/1 53/45/1 54/46/1 45/33/1
f 45/33/1 54/46/1 55/47/1 46/35/1
f 46/35/1 55/47/1 56/48/1 47/37/1
f 47/37/1 56/48/1 57/49/1 48/39/1
f 48/39/1 57/49/1 58/9/1 49/6/1
f 15/41/1 16/50/1 59/51/1 50/42/1
f 50/42/1 59/51/1 60/52/1 51/43/1
f 51/43/1 60/52/1 61/53/1 52/44/1
f 52/44/1 61/53/1 62/54/1 53/45/1
f 53/45/1 62/54/1 63/55/1 54/46/1
f 54/46/1 63/55/1 64/56/1 55/47/1
f 55/47/1 64/56/1 65/57/1 56/48/1
f 56/48/1 65/57/1 66/58/1 57/49/1
f 57/49/1 66/58/1 67/11/1 58/9/1
f 16/50/1 17/59/1 68/60/1 59/51/1
f 59/51/1 68/60/1 69/61/1 60/52/1
f 60/52/1 69/61/1 70/62/1 61/53/1
f 61/53/1 70/62/1 71/63/1 62/54/1
f 62/54/1 71/63/1 72/64/1 63/55/1
f 63/55/1 72/64/1 73/65/1 64/56/1
f 64/56/1 73/65/1 74/66/1 65/57/1
f 65/57/1 74/66/1 75/67/1 66/58/1
f 66/58/1 75/67/1 76/13/1 67/11/1
f 17/59/1 18/68/1 77/69/1 68/60/1
f 68/60/1 77/69/1 78/70/1 69/61/1
f 69/61/1 78/70/1 79/71/1 70/62/1
f 70/62/1 79/71/1 80/72/1 71/63/1
f 71/63/1 80/72/1 81/73/1 72/64/1
f 72/64/1 81/73/1 82/74/1 73/65/1
f 73/65/1 82/74/1 83/75/1 74/66/1
f 74/66/1 83/75/1 84/76/1 75/67/1
f 75/67/1 84/76/1 85/15/1 76/13/1
f 18/68/1 19/77/1 86/78/1 77/69/1
f 77/69/1 86/78/1 87/79/1 78/70/1
f 78/70/1 87/79/1 88/80/1 79/71/1
f 79/71/1 88/80/1 89/81/1 80/72/1
f 80/72/1 89/81/1 90/82/1 81/73/1
f 81/73/1 90/82/1 91/83/1 82/74/1
f 82/74/1 91/83/1 92/84/1 83/75/1
f 83/75/1 92/84/1 93/85/1 84/76/1
f 84/76/1 93/85/1 94/17/1 85/15/1
f 19/77/1 20/86/1 95/87/1 86/78/1
f 86/78/1 95/87/1 96/88/1 87/79/1
f 87/79/1 96/88/1 97/89/1 88/80/1
f 88/80/1 97/89/1 98/90/1 89/81/1
f 89/81/1 98/90/1 99/91/1 90/82/1
f 90/82/1 99/91/1 100/92/1 91/83/1
f 91/83/1 100/92/1 101/93/1 92/84/1
f 92/84/1 101/93/1 102/94/1 93/85/1
f 93/85/1 102/94/1 103/19/1 94/17/1
f 20/86/1 21/95/1 104/96/1 95/87/1
f 95/87/1 104/96/1 105/97/1 96/88/1
f 96/88/1 105/97/1 106/98/1 97/89/1
f 97/89/1 106/98/1 107/99/1 98/90/1
f 98/90/1 107/99/1 108/100/1 99/91/1
f 99/91/1 108/100/1 109/101/1 100/92/1
f 100/92/1 109/101/1 110/102/1 101/93/1
f 101/93/1 110/102/1 111/103/1 102/94/1
f 102/94/1 111/103/1 112/21/1 103/19/1
f 21/95/1 22/104/1 113/105/1 104/96/1
f 104/96/1 113/105/1 114/106/1 105/97/1
f 105/97/1 114/106/1 115/107/1 106/98/1
f 106/98/1 115/107/1 116/108/1 107/99/1
f 107/99/1 116/108/1 117/109/1 108/100/1
f 108/100/1 117/109/1 118/110/1 109/101/1
f 109/101/1 118/110/1 119/111/1 110/102/1
f 110/102/1 119/111/1 120/112/1 111/103/1
f 111/103/1 120/112/1 121/1/1 112/21/1
f 22/104/1 2/113/1 23/114/1 113/105/1
f 113/105/1 23/114/1 24/115/1 114/106/1
f 114/106/1 24/115/1 25/116/1 115/107/1
f 115/107/1 25/116/1 26/117/1 116/108/1
f 116/108/1 26/117/1 27/118/1 117/109/1
f 117/109/1 27/118/1 28/119/1 118/110/1
f 118/110/1 28/119/1 29/120/1 119/111/1
f 119/111/1 29/120/1 30/121/1 120/112/1
f 120/112/1 30/121/1 31/2/1 121/1/1
